<mxfile host="app.diagrams.net" modified="2020-11-08T15:42:38.979Z" agent="5.0 (Windows)" etag="TJa7yT5E_Yidg6vZWEuE" version="13.9.2" type="github">
  <diagram id="_UAKYzUMB8ePTD7H-kAx" name="Page-1">
    <mxGraphModel dx="1038" dy="547" grid="1" gridSize="10" guides="1" tooltips="1" connect="1" arrows="1" fold="1" page="1" pageScale="1" pageWidth="827" pageHeight="1169" math="0" shadow="0">
      <root>
        <mxCell id="0" />
        <mxCell id="1" parent="0" />
        <mxCell id="sASOVfSEN2bFQS-86Lv1-1" value="Actor" style="shape=umlActor;verticalLabelPosition=bottom;verticalAlign=top;html=1;outlineConnect=0;" vertex="1" parent="1">
          <mxGeometry x="290" y="60" width="300" height="420" as="geometry" />
        </mxCell>
      </root>
    </mxGraphModel>
  </diagram>
</mxfile>
